<svg width="296" height="77" viewBox="0 0 296 77" fill="none" xmlns="http://www.w3.org/2000/svg">
<path d="M106.496 64.512C103.552 64.512 100.971 63.8507 98.752 62.528C96.576 61.1627 94.8693 59.2427 93.632 56.768C92.4373 54.2933 91.84 51.456 91.84 48.256V34.944C91.84 31.744 92.4587 28.928 93.696 26.496C94.976 24.0213 96.7467 22.1013 99.008 20.736C101.269 19.3707 103.872 18.688 106.816 18.688H113.6C116.416 18.688 118.891 19.2853 121.024 20.48C123.2 21.6747 124.885 23.36 126.08 25.536C127.275 27.712 127.872 30.208 127.872 33.024H123.264C123.264 29.9947 122.368 27.5627 120.576 25.728C118.827 23.8507 116.501 22.912 113.6 22.912H106.816C103.744 22.912 101.269 24.0213 99.392 26.24C97.5147 28.416 96.576 31.3173 96.576 34.944V48.256C96.576 51.8827 97.472 54.8053 99.264 57.024C101.099 59.2 103.509 60.288 106.496 60.288H113.408C116.437 60.288 118.891 59.2427 120.768 57.152C122.645 55.0613 123.584 52.3093 123.584 48.896V45.056H111.168V40.896H128.192V48.896C128.192 51.968 127.573 54.6987 126.336 57.088C125.141 59.4347 123.413 61.2693 121.152 62.592C118.933 63.872 116.352 64.512 113.408 64.512H106.496ZM145.446 64C142.289 64 140.027 63.3387 138.662 62.016C137.297 60.6507 136.614 58.4107 136.614 55.296V19.2H141.222V55.296C141.222 56.9173 141.542 58.0907 142.182 58.816C142.865 59.5413 143.953 59.904 145.446 59.904H147.622V64H145.446ZM164.043 76.992C161.227 76.992 158.902 76.224 157.067 74.688C155.232 73.1947 154.208 71.2107 153.995 68.736H158.603C158.774 70.016 159.35 71.04 160.331 71.808C161.355 72.6187 162.592 73.024 164.043 73.024H169.035C171.254 73.024 172.96 72.2773 174.155 70.784C175.392 69.3333 176.011 67.2853 176.011 64.64V58.752C174.987 60.288 173.686 61.5467 172.107 62.528C170.571 63.5093 169.035 64 167.499 64H163.403C160.416 64 157.984 62.9973 156.107 60.992C154.272 58.9867 153.355 56.3627 153.355 53.12V32.064H157.963V53.248C157.963 55.2533 158.454 56.8747 159.435 58.112C160.459 59.3067 161.782 59.904 163.403 59.904H167.371C169.334 59.904 171.147 59.1147 172.811 57.536C174.475 55.9573 175.542 53.9733 176.011 51.584V32.064H180.619V64.64C180.619 68.5227 179.595 71.552 177.547 73.728C175.499 75.904 172.662 76.992 169.035 76.992H164.043ZM190.364 32.064H194.844V36.416C195.74 34.9653 196.913 33.792 198.364 32.896C199.857 32 201.351 31.552 202.844 31.552H207.452C210.865 31.552 213.617 32.64 215.708 34.816C217.841 36.992 218.908 39.872 218.908 43.456V51.328C218.908 55.296 217.82 58.496 215.644 60.928C213.511 63.3173 210.673 64.512 207.132 64.512H202.524C201.201 64.512 199.815 64.1493 198.364 63.424C196.913 62.656 195.783 61.6747 194.972 60.48V76.736H190.364V32.064ZM207.004 60.416C209.223 60.416 210.993 59.584 212.316 57.92C213.639 56.256 214.3 54.0587 214.3 51.328V43.456C214.3 41.1093 213.66 39.232 212.38 37.824C211.1 36.3733 209.415 35.648 207.324 35.648H202.844C201.052 35.648 199.431 36.352 197.98 37.76C196.529 39.1253 195.527 40.896 194.972 43.072V52.672C195.271 54.9333 196.145 56.7893 197.596 58.24C199.047 59.6907 200.775 60.416 202.78 60.416H207.004ZM227.364 19.2H231.972V36.48C232.953 34.9867 234.212 33.792 235.748 32.896C237.284 32 238.841 31.552 240.42 31.552H244.9C247.844 31.552 250.212 32.5547 252.004 34.56C253.839 36.5653 254.756 39.1893 254.756 42.432V64H250.148V42.304C250.148 40.3413 249.657 38.7413 248.676 37.504C247.695 36.2667 246.393 35.648 244.772 35.648H240.548C238.543 35.648 236.708 36.4373 235.044 38.016C233.423 39.552 232.399 41.536 231.972 43.968V64H227.364V19.2Z" fill="white"/>
<g clip-path="url(#clip0_18_96)">
<path d="M47.527 10.9294L47.8133 10.5806L48.026 10.1827L48.157 9.75088L48.2012 9.30181L48.157 8.85276L48.026 8.42095L47.8133 8.02299L47.527 7.67419L47.1782 7.38793L46.7802 7.17521L46.3484 7.04422L45.8994 7L45.4503 7.04422L45.0185 7.17521L44.6206 7.38793L44.2718 7.67419L0.674183 51.2718L0.387926 51.6206L0.175214 52.0185L0.0442245 52.4503L0 52.8994L0.0442245 53.3485L0.175214 53.7803L0.387926 54.1782L0.674183 54.527L1.023 54.8133L1.42095 55.026L1.85275 55.157L2.30181 55.2012L2.75088 55.157L3.18268 55.026L3.58063 54.8133L3.92944 54.527L47.527 10.9294Z" fill="#FEFEFE"/>
<path d="M25.7282 7.67419L25.3794 7.38793L24.9815 7.17521L24.5497 7.04422L24.1006 7L23.6515 7.04422L23.2197 7.17522L22.8218 7.38793L22.473 7.67419L22.1867 8.023L21.974 8.42096L21.843 8.85276L21.7988 9.30181L21.843 9.75088L21.974 10.1827L22.1867 10.5806L22.473 10.9294L66.0706 54.527L66.4194 54.8133L66.8173 55.026L67.2491 55.157L67.6982 55.2012L68.1472 55.157L68.5791 55.026L68.977 54.8133L69.3258 54.527L69.6121 54.1782L69.8248 53.7803L69.9558 53.3485L70 52.8994L69.9558 52.4503L69.8248 52.0185L69.6121 51.6206L69.3258 51.2718L25.7282 7.67419Z" fill="#FEFEFE"/>
<path d="M3.92945 29.473L3.58064 29.1867L3.18269 28.974L2.75088 28.843L2.30182 28.7988L1.85276 28.843L1.42095 28.974L1.023 29.1867L0.674187 29.473L0.38793 29.8218L0.175219 30.2197L0.0442316 30.6515L3.8147e-06 31.1006L0.0442316 31.5497L0.175219 31.9815L0.38793 32.3794L0.674187 32.7282L44.2718 76.3258L44.6206 76.6121L45.0185 76.8248L45.4503 76.9558L45.8994 77L46.3484 76.9558L46.7803 76.8248L47.1782 76.6121L47.527 76.3258L47.8133 75.977L48.026 75.5791L48.157 75.1473L48.2012 74.6982L48.157 74.2491L48.026 73.8173L47.8133 73.4194L47.527 73.0706L3.92945 29.473Z" fill="#FEFEFE"/>
<path d="M22.473 73.0706L22.1867 73.4194L21.974 73.8173L21.843 74.2491L21.7988 74.6982L21.843 75.1472L21.974 75.579L22.1867 75.977L22.473 76.3258L22.8218 76.6121L23.2197 76.8248L23.6515 76.9558L24.1006 77L24.5497 76.9558L24.9815 76.8248L25.3794 76.6121L25.7282 76.3258L69.3258 32.7282L69.6121 32.3794L69.8248 31.9815L69.9558 31.5497L70 31.1006L69.9558 30.6516L69.8248 30.2197L69.6121 29.8218L69.3258 29.473L68.977 29.1867L68.579 28.974L68.1472 28.843L67.6982 28.7988L67.2491 28.843L66.8173 28.974L66.4194 29.1867L66.0706 29.473L22.473 73.0706Z" fill="#FEFEFE"/>
<path d="M34.3066 42.8532L34.669 43.122L35.0769 43.3149L35.5146 43.4246L35.9653 43.4467L36.4117 43.3805L36.8365 43.2285L37.2236 42.9965L37.5579 42.6935L37.8267 42.331L38.0196 41.9231L38.1293 41.4854L38.1514 41.0347L38.0852 40.5884L37.9332 40.1635L37.7012 39.7765L37.3982 39.4421L37.3105 39.3627L37.0409 39.1489L36.7516 38.9626L36.4454 38.8055L36.1254 38.6792L35.7945 38.5849L35.4559 38.5235L35.1129 38.4955L34.7689 38.5014L34.4271 38.5408L34.0908 38.6137L33.7632 38.7191L33.4476 38.8561L33.1469 39.0234L32.8641 39.2194L32.6018 39.4421L32.3627 39.6895L32.1489 39.9591L31.9626 40.2484L31.8055 40.5546L31.6792 40.8746L31.5849 41.2056L31.5235 41.5441L31.4955 41.8871L31.5013 42.2311L31.5408 42.5729L31.6136 42.9092L31.7191 43.2368L31.8561 43.5524L32.0234 43.8531L32.2194 44.1359L32.4421 44.3982L32.6895 44.6374L32.9591 44.8511L33.2484 45.0374L33.5545 45.1945L33.8746 45.3208L34.2055 45.4151L34.5441 45.4765L34.887 45.5045L35.2311 45.4987L35.5729 45.4592L35.9092 45.3864L36.2368 45.2809L36.5524 45.1439L36.8531 44.9766L37.1359 44.7807L37.3982 44.5579L37.6373 44.3105L37.8511 44.0409L38.0374 43.7516L38.1945 43.4455L38.3208 43.1254L38.4151 42.7945L38.4765 42.4559L38.5045 42.113L38.4987 41.7689L38.4592 41.4271L38.3863 41.0908L38.2809 40.7633L38.1439 40.4476L37.9766 40.1469L37.7806 39.8641L37.5579 39.6018L37.2235 39.2988L36.8365 39.0668L36.4117 38.9148L35.9653 38.8486L35.5146 38.8707L35.0769 38.9804L34.669 39.1733L34.3066 39.4421L34.0035 39.7765L33.7715 40.1635L33.6195 40.5884L33.5533 41.0347L33.5755 41.4854L33.6851 41.9231L33.878 42.331L34.1468 42.6935L34.1525 42.6956L34.0884 42.6091L34.0331 42.5168L33.9871 42.4196L33.9508 42.3183L33.9247 42.2139L33.9089 42.1075L33.9036 42L33.9089 41.8925L33.9247 41.7861L33.9508 41.6817L33.9871 41.5804L34.0331 41.4832L34.0884 41.3909L34.1525 41.3045L34.2247 41.2247L34.3045 41.1525L34.3909 41.0884L34.4832 41.0331L34.5804 40.9871L34.6817 40.9508L34.7861 40.9247L34.8925 40.9089L35 40.9036L35.1075 40.9089L35.2139 40.9247L35.3183 40.9508L35.4196 40.9871L35.5168 41.0331L35.6091 41.0884L35.6955 41.1525L35.7753 41.2247L35.8475 41.3045L35.9116 41.3909L35.9669 41.4832L36.0129 41.5804L36.0492 41.6817L36.0753 41.7861L36.0911 41.8925L36.0964 42L36.0911 42.1075L36.0753 42.2139L36.0492 42.3183L36.0129 42.4196L35.9669 42.5168L35.9116 42.6091L35.8475 42.6956L35.7753 42.7753L35.6955 42.8475L35.6091 42.9116L35.5168 42.9669L35.4196 43.0129L35.3183 43.0492L35.2139 43.0753L35.1075 43.0911L35 43.0964L34.8925 43.0911L34.7861 43.0753L34.6817 43.0492L34.5804 43.0129L34.4832 42.9669L34.3909 42.9116L34.3045 42.8475L34.3066 42.8532Z" fill="#FEFEFE"/>
</g>
<defs>
<clipPath id="clip0_18_96">
<rect width="70" height="70" fill="white" transform="translate(0 7)"/>
</clipPath>
</defs>
</svg>
